<?xml version="1.0" encoding="UTF-8"?>
<svg version="1.1" xmlns="http://www.w3.org/2000/svg" width="500" height="500">
<path d="M0 0 C3.85054285 3.32898452 7.47992727 6.8534108 11.09570312 10.43408203 C11.89105469 11.16884766 12.68640625 11.90361328 13.50585938 12.66064453 C35.88790796 33.7400342 49.38637263 65.07726531 52.09570312 95.43408203 C52.16273438 96.10987305 52.22976563 96.78566406 52.29882812 97.48193359 C55.3488316 129.25769095 47.73827186 159.36903504 31.09570312 186.43408203 C30.41507812 187.55041016 29.73445313 188.66673828 29.03320312 189.81689453 C23.7612651 197.78128661 17.41995525 204.51583228 10.72070312 211.30908203 C9.85928711 212.18910889 8.99787109 213.06913574 8.11035156 213.97583008 C1.95937379 220.06733069 -4.54172834 224.89741738 -11.90429688 229.43408203 C-12.93586914 230.07265137 -12.93586914 230.07265137 -13.98828125 230.72412109 C-45.8056267 249.94489844 -83.92075328 257.53156797 -120.59863281 249.02490234 C-152.27334398 240.90834146 -180.97232948 223.69860157 -200.90429688 197.43408203 C-201.31035156 196.90830566 -201.71640625 196.3825293 -202.13476562 195.84082031 C-208.98688645 186.91988608 -214.26309621 177.66773771 -218.90429688 167.43408203 C-219.44957031 166.26619141 -219.99484375 165.09830078 -220.55664062 163.89501953 C-226.9719916 149.17072798 -230.5834197 132.5008605 -230.90429688 116.43408203 C-230.94296875 115.60263672 -230.98164063 114.77119141 -231.02148438 113.91455078 C-232.02238811 77.715199 -218.68742872 44.2575143 -195.65429688 16.87158203 C-195.14672852 16.26306396 -194.63916016 15.6545459 -194.11621094 15.02758789 C-191.6325303 12.13228602 -189.54362282 9.75983648 -185.90429688 8.43408203 C-185.90429688 7.77408203 -185.90429688 7.11408203 -185.90429688 6.43408203 C-183.79581614 4.59853408 -181.68350012 2.88023647 -179.46679688 1.18408203 C-178.49456177 0.4349353 -178.49456177 0.4349353 -177.50268555 -0.3293457 C-175.64404302 -1.75177857 -173.77667457 -3.1616347 -171.90429688 -4.56591797 C-171.15664062 -5.12923828 -170.40898437 -5.69255859 -169.63867188 -6.27294922 C-119.77843985 -41.43860066 -47.18603754 -38.80144164 0 0 Z M-121.90429688 6.43408203 C-121.90429688 16.00408203 -121.90429688 25.57408203 -121.90429688 35.43408203 C-134.11429688 35.43408203 -146.32429688 35.43408203 -158.90429688 35.43408203 C-158.90429688 41.70408203 -158.90429688 47.97408203 -158.90429688 54.43408203 C-152.78950958 55.22097756 -152.78950958 55.22097756 -146.66870117 55.95825195 C-145.90468994 56.06758057 -145.14067871 56.17690918 -144.35351562 56.28955078 C-143.57322998 56.38905029 -142.79294434 56.4885498 -141.98901367 56.59106445 C-138.88658183 57.84562555 -138.31459353 59.41908438 -136.90429688 62.43408203 C-136.62395857 65.33859262 -136.50388725 68.02359517 -136.53198242 70.92456055 C-136.52833176 71.76742615 -136.52468109 72.61029175 -136.5209198 73.47869873 C-136.51283218 76.25700197 -136.52640837 79.03471875 -136.54101562 81.81298828 C-136.5415344 83.74682108 -136.54101603 85.68065441 -136.539505 87.61448669 C-136.53959465 91.6637257 -136.55000832 95.71276526 -136.56811523 99.76196289 C-136.5908172 104.95287461 -136.59134285 110.14349538 -136.58459759 115.33444309 C-136.58125689 119.32613207 -136.58788936 123.31775468 -136.59772682 127.30943108 C-136.60157623 129.22359813 -136.60272811 131.13777256 -136.60114098 133.05194283 C-136.60077026 135.72577117 -136.61339179 138.39922583 -136.62963867 141.07299805 C-136.62716125 141.86427597 -136.62468384 142.65555389 -136.62213135 143.47080994 C-136.69051894 150.52022471 -136.69051894 150.52022471 -138.90429688 153.43408203 C-141.76757812 154.26220703 -141.76757812 154.26220703 -145.21679688 154.68408203 C-146.91255859 154.90837891 -146.91255859 154.90837891 -148.64257812 155.13720703 C-151.42456954 155.39041823 -154.11419813 155.49689851 -156.90429688 155.43408203 C-157.2222915 157.05801573 -157.53330665 158.68331605 -157.84179688 160.30908203 C-158.01582031 161.21400391 -158.18984375 162.11892578 -158.36914062 163.05126953 C-159.07075734 167.48630656 -159.45750612 171.96617453 -159.90429688 176.43408203 C-147.36429687 176.43408203 -134.82429688 176.43408203 -121.90429688 176.43408203 C-121.90429688 186.33408203 -121.90429688 196.23408203 -121.90429688 206.43408203 C-118.78992188 206.45470703 -115.67554688 206.47533203 -112.46679688 206.49658203 C-111.48396729 206.50568604 -110.5011377 206.51479004 -109.48852539 206.52416992 C-108.71951904 206.52666748 -107.9505127 206.52916504 -107.15820312 206.53173828 C-106.36744385 206.5369751 -105.57668457 206.54221191 -104.76196289 206.54760742 C-102.88836999 206.63904112 -102.88836999 206.63904112 -101.90429688 205.43408203 C-101.36533083 195.78024898 -102.23463459 186.06047733 -102.90429688 176.43408203 C-97.62429687 176.43408203 -92.34429687 176.43408203 -86.90429688 176.43408203 C-86.90429688 186.33408203 -86.90429688 196.23408203 -86.90429688 206.43408203 C-80.30429687 206.43408203 -73.70429688 206.43408203 -66.90429688 206.43408203 C-66.90429688 196.86408203 -66.90429688 187.29408203 -66.90429688 177.43408203 C-64.03742188 177.20720703 -61.17054688 176.98033203 -58.21679688 176.74658203 C-44.7753609 175.45062016 -31.93617507 171.28675966 -22.59179688 161.05908203 C-14.68982755 151.07764709 -12.94653504 139.93059359 -13.90429688 127.43408203 C-15.52131676 117.78631635 -20.02401562 111.28590449 -27.90429688 105.62158203 C-31.46323204 103.26687871 -35.01040151 101.17608785 -38.90429688 99.43408203 C-38.39898437 99.02416016 -37.89367187 98.61423828 -37.37304688 98.19189453 C-36.72335937 97.65306641 -36.07367188 97.11423828 -35.40429688 96.55908203 C-34.75460937 96.02541016 -34.10492188 95.49173828 -33.43554688 94.94189453 C-32.93023437 94.44431641 -32.42492187 93.94673828 -31.90429688 93.43408203 C-31.90429688 92.77408203 -31.90429688 92.11408203 -31.90429688 91.43408203 C-31.24429688 91.43408203 -30.58429688 91.43408203 -29.90429688 91.43408203 C-24.6936452 83.27072774 -22.60877058 74.68902928 -24.33398438 65.02783203 C-25.98246593 58.4339058 -29.08300904 53.24441239 -33.90429688 48.43408203 C-35.38929688 47.93908203 -35.38929688 47.93908203 -36.90429688 47.43408203 C-36.90429688 46.77408203 -36.90429688 46.11408203 -36.90429688 45.43408203 C-39.08806453 44.30130935 -41.27586816 43.17785414 -43.46679688 42.05908203 C-44.38041992 41.58341797 -44.38041992 41.58341797 -45.3125 41.09814453 C-52.87225671 37.25826811 -59.26068448 36.29844327 -67.90429688 35.43408203 C-67.90429688 25.86408203 -67.90429688 16.29408203 -67.90429688 6.43408203 C-72.32835937 6.40314453 -72.32835937 6.40314453 -76.84179688 6.37158203 C-77.77241943 6.36247803 -78.70304199 6.35337402 -79.66186523 6.34399414 C-80.39026611 6.34149658 -81.11866699 6.33899902 -81.86914062 6.33642578 C-82.61800537 6.33118896 -83.36687012 6.32595215 -84.13842773 6.32055664 C-85.93097426 6.24066451 -85.93097426 6.24066451 -86.90429688 7.43408203 C-86.991968 9.5067028 -87.01125561 11.58228497 -87.00195312 13.65673828 C-86.99873047 14.91679687 -86.99550781 16.17685547 -86.9921875 17.47509766 C-86.98383091 18.81559312 -86.97536595 20.15608791 -86.96679688 21.49658203 C-86.96178348 22.84098145 -86.95722029 24.18538263 -86.953125 25.52978516 C-86.94129184 28.83123636 -86.92335573 32.13266463 -86.90429688 35.43408203 C-91.85429687 35.10408203 -96.80429688 34.77408203 -101.90429688 34.43408203 C-102.23429687 25.19408203 -102.56429687 15.95408203 -102.90429688 6.43408203 C-109.17429688 6.43408203 -115.44429687 6.43408203 -121.90429688 6.43408203 Z M-195.90429688 77.43408203 C-195.99825745 79.36714701 -196.02173205 81.30367041 -196.01782227 83.23901367 C-196.01774673 84.48022476 -196.0176712 85.72143585 -196.01759338 87.0002594 C-196.01248598 88.36491943 -196.00726997 89.72957905 -196.00195312 91.09423828 C-196.00008888 92.48286386 -195.99866501 93.8714901 -195.99766541 95.26011658 C-195.99384074 98.92129318 -195.98401091 102.58243033 -195.97296143 106.24359131 C-195.9627462 109.97700466 -195.95816755 113.71042437 -195.953125 117.44384766 C-195.94238858 124.7739438 -195.92531279 132.10400739 -195.90429688 139.43408203 C-191.77943477 139.52222011 -187.65481949 139.57485281 -183.52929688 139.62158203 C-182.37300781 139.64671875 -181.21671875 139.67185547 -180.02539062 139.69775391 C-170.38088573 139.779487 -161.6239806 139.00232256 -154.36914062 132.10595703 C-146.22818146 122.81440897 -145.9137461 111.57087413 -146.60986328 99.84667969 C-147.45610871 92.91251942 -151.10306031 87.69717412 -155.34179688 82.37158203 C-160.98891366 78.1018108 -167.03177657 76.30842572 -174.06835938 76.30126953 C-175.27234375 76.29998047 -176.47632813 76.29869141 -177.71679688 76.29736328 C-178.97492188 76.30123047 -180.23304688 76.30509766 -181.52929688 76.30908203 C-182.79515625 76.30521484 -184.06101562 76.30134766 -185.36523438 76.29736328 C-186.56664062 76.29865234 -187.76804687 76.29994141 -189.00585938 76.30126953 C-190.66609131 76.30296143 -190.66609131 76.30296143 -192.35986328 76.3046875 C-194.83944308 76.14580109 -194.83944308 76.14580109 -195.90429688 77.43408203 Z M-5.90429688 121.43408203 C-6.07212229 128.25155273 -6.23208585 135.06917474 -6.38647461 141.88696289 C-6.43998251 144.20829487 -6.49531833 146.52958545 -6.55249023 148.85083008 C-6.6341567 152.1792711 -6.70933806 155.50780366 -6.78320312 158.83642578 C-6.81023819 159.8812059 -6.83727325 160.92598602 -6.86512756 162.00242615 C-6.88522385 162.96334671 -6.90532013 163.92426727 -6.92602539 164.91430664 C-6.94601089 165.76480087 -6.9659964 166.6152951 -6.98658752 167.49156189 C-7.12345433 169.44043956 -7.12345433 169.44043956 -5.90429688 170.43408203 C-2.87107351 170.5891731 0.12363137 170.66592453 3.15820312 170.68408203 C3.99287109 170.70470703 4.82753906 170.72533203 5.6875 170.74658203 C13.59849949 170.79591017 20.23999029 169.12248878 26.09570312 163.43408203 C30.11818015 157.83134618 30.29540816 152.28603332 30.34570312 145.55908203 C30.36632812 144.87716797 30.38695312 144.19525391 30.40820312 143.49267578 C30.44696818 138.40476224 29.35048316 134.99437466 27.09570312 130.43408203 C26.68320312 129.54720703 26.27070313 128.66033203 25.84570312 127.74658203 C23.43711343 124.56380279 20.79642333 122.79621411 17.09570312 121.43408203 C13.10056009 120.96374961 9.17368778 121.05446986 5.15820312 121.18408203 C4.09279297 121.20212891 3.02738281 121.22017578 1.9296875 121.23876953 C-0.68258617 121.28562646 -3.29295914 121.35121278 -5.90429688 121.43408203 Z " fill="#7E58CA" transform="translate(338.904296875,135.56591796875)"/>
<path d="M0 0 C31.48422266 0.03864675 31.48422266 0.03864675 40.2265625 7.90136719 C44.84828658 13.05594887 45.81864195 17.46057846 45.71875 24.33496094 C45.05350998 29.14971789 42.93289468 32.0274468 39.32421875 35.19042969 C29.00220506 42.14271382 17.77908048 42.49050015 5.69921875 42.31542969 C3.90677734 42.30189453 3.90677734 42.30189453 2.078125 42.28808594 C-0.84005959 42.26474046 -3.75780901 42.23199624 -6.67578125 42.19042969 C-6.70042763 36.36971346 -6.71861555 30.54902735 -6.73071289 24.72827148 C-6.73575392 22.74649527 -6.74258663 20.7647228 -6.7512207 18.78295898 C-6.7632964 15.9409086 -6.7690117 13.09890721 -6.7734375 10.25683594 C-6.77859879 9.36517227 -6.78376007 8.47350861 -6.78907776 7.55482483 C-6.78927302 5.43302367 -6.73788155 3.31132189 -6.67578125 1.19042969 C-4.86965999 -0.61569157 -2.40538082 0.02452294 0 0 Z " fill="#7E59C8" transform="translate(242.67578125,248.8095703125)"/>
<path d="M0 0 C29.61884368 -0.56959315 29.61884368 -0.56959315 40 7 C43.87847692 10.87847692 44.31322031 14.20389188 44.5 19.5 C44.31917096 24.79829088 43.82168843 28.07774082 40 32 C30.5723797 39.22115597 20.87136126 39.17068273 9.4375 39.0625 C4.7659375 39.0315625 4.7659375 39.0315625 0 39 C0 26.13 0 13.26 0 0 Z " fill="#7E59C8" transform="translate(236,192)"/>
<path d="M0 0 C14 0 14 0 19 3 C22.96792331 8.09924652 23.68241366 13.72185384 23.5625 20 C23.55444336 20.79019531 23.54638672 21.58039063 23.53808594 22.39453125 C23.36002765 27.56894795 22.66116995 31.4517734 19.484375 35.6875 C13.389183 41.07693293 9.02155312 39 0 39 C0 26.13 0 13.26 0 0 Z " fill="#7E59C8" transform="translate(156,224)"/>
<path d="M0 0 C11 0 11 0 13.5625 1.8125 C14.036875 2.534375 14.51125 3.25625 15 4 C15.99 5.485 15.99 5.485 17 7 C17.22234558 9.835628 17.32446811 12.54095085 17.3125 15.375 C17.32861328 16.13039063 17.34472656 16.88578125 17.36132812 17.6640625 C17.36534942 22.26442912 16.97922898 25.2742195 14 29 C11 31 11 31 0 31 C0 20.77 0 10.54 0 0 Z " fill="#7B58C3" transform="translate(342,266)"/>
<path d="M0 0 C2.89796128 3.51703041 4.82623116 7.42946986 6.8125 11.5 C7.34025024 12.56468506 7.34025024 12.56468506 7.87866211 13.65087891 C9.47772654 16.87952842 11.05564233 20.11641672 12.609375 23.3671875 C15.85083413 30.07665937 19.52408044 36.04676317 24 42 C24.589021 42.79204834 24.589021 42.79204834 25.18994141 43.60009766 C31.00453934 51.48652595 31.00453934 51.48652595 37.625 58.6875 C38.40875 59.450625 39.1925 60.21375 40 61 C40 61.66 40 62.32 40 63 C40.53882813 63.22945313 41.07765625 63.45890625 41.6328125 63.6953125 C44.70253691 65.38720681 47.23579705 67.59478183 49.875 69.875 C53.74909119 73.21405046 57.68925526 76.23525534 62 79 C62.94617188 79.61359375 63.89234375 80.2271875 64.8671875 80.859375 C71.67115652 85.13615553 78.55167201 88.91123084 85.79443359 92.38574219 C88.56055859 93.72177576 90.81043366 94.81043366 93 97 C88.228024 96.4244487 84.23847436 94.99944103 79.9375 92.9375 C79.28700684 92.62876953 78.63651367 92.32003906 77.96630859 92.00195312 C67.8814429 87.11024184 58.67326778 81.09354825 50 74 C49.15050781 73.34644531 48.30101562 72.69289063 47.42578125 72.01953125 C35.10337388 62.36902961 25.7551474 50.86502774 17 38 C16.44828125 37.24589844 15.8965625 36.49179687 15.328125 35.71484375 C8.73441472 26.51555441 0 11.51792162 0 0 Z " fill="#F4F3FB" transform="translate(101,295)"/>
<path d="M0 0 C1.1240625 -0.00257813 2.248125 -0.00515625 3.40625 -0.0078125 C4.57671875 -0.00007812 5.7471875 0.00765625 6.953125 0.015625 C8.108125 0.00789062 9.263125 0.00015625 10.453125 -0.0078125 C16.76205717 0.00659145 22.14238223 0.57091494 28.203125 2.265625 C28.863125 1.935625 29.523125 1.605625 30.203125 1.265625 C30.698125 3.245625 30.698125 3.245625 31.203125 5.265625 C32.523125 4.935625 33.843125 4.605625 35.203125 4.265625 C35.203125 5.585625 35.203125 6.905625 35.203125 8.265625 C34.543125 7.9975 33.883125 7.729375 33.203125 7.453125 C17.9147447 1.40147447 16.947322 3.265625 -4.796875 3.265625 C-5.126875 23.725625 -5.456875 44.185625 -5.796875 65.265625 C10.75443322 64.83309962 10.75443322 64.83309962 27.203125 63.265625 C26.203125 65.265625 26.203125 65.265625 24.04956055 66.3762207 C20.77848386 67.39830942 18.08541852 67.50850324 14.66015625 67.49609375 C12.80293945 67.49319336 12.80293945 67.49319336 10.90820312 67.49023438 C9.62365234 67.47798828 8.33910156 67.46574219 7.015625 67.453125 C5.71947266 67.45248047 4.42332031 67.45183594 3.08789062 67.45117188 C-6.51605331 67.40603585 -6.51605331 67.40603585 -8.796875 66.265625 C-9.98947188 63.55517754 -9.73313581 61.8033676 -9.32470703 58.84130859 C-8.61084692 53.43689125 -8.65352916 48.06082859 -8.6640625 42.6171875 C-8.66310577 41.52344818 -8.66214905 40.42970886 -8.66116333 39.30282593 C-8.66048595 37.00510602 -8.66230923 34.70738415 -8.66650391 32.40966797 C-8.67188947 28.88114181 -8.66652808 25.35274115 -8.66015625 21.82421875 C-8.6608165 19.58854138 -8.66209657 17.3528641 -8.6640625 15.1171875 C-8.66203827 14.05891754 -8.66001404 13.00064758 -8.65792847 11.91030884 C-8.66108063 10.93524384 -8.66423279 9.96017883 -8.66748047 8.95556641 C-8.66827606 8.09589264 -8.66907166 7.23621887 -8.66989136 6.35049438 C-8.66384684 4.20500627 -8.66384684 4.20500627 -9.796875 2.265625 C-6.44788712 0.25463466 -3.87801332 0.0085987 0 0 Z " fill="#7459AC" transform="translate(148.796875,209.734375)"/>
<path d="M0 0 C6.23828691 0.44707723 11.12358567 3.36572755 16.5 6.3125 C17.47815674 6.84794434 18.45631348 7.38338867 19.46411133 7.93505859 C27.31827247 12.36488058 33.98922658 17.40755007 40.5078125 23.60351562 C41.93541121 24.93955368 43.42001629 26.21388489 44.90625 27.484375 C56.81810427 37.72321603 68.07353878 51.858475 75 66 C74.505 67.485 74.505 67.485 74 69 C73.47792969 68.15179688 72.95585937 67.30359375 72.41796875 66.4296875 C54.14045038 37.12997769 30.15781972 17.40648799 0 1 C0 0.67 0 0.34 0 0 Z " fill="#F1F1F6" transform="translate(313,103)"/>
<path d="M0 0 C1 3 1 3 -0.4765625 6.4765625 C-1.18209297 7.86482113 -1.89888115 9.24739821 -2.625 10.625 C-2.99238281 11.33978516 -3.35976563 12.05457031 -3.73828125 12.79101562 C-6.3875711 17.91762387 -9.11281726 23.00295296 -12 28 C-12.66 28 -13.32 28 -14 28 C-14.2475 28.71929687 -14.495 29.43859375 -14.75 30.1796875 C-16.13120887 33.29604001 -17.82363994 35.50856713 -20 38.125 C-22.13736093 40.71026378 -24.13758894 43.20638341 -26 46 C-26.66 46 -27.32 46 -28 46 C-28.226875 46.556875 -28.45375 47.11375 -28.6875 47.6875 C-30.36718835 50.6469509 -32.54133285 52.66126784 -35 55 C-35.556875 55.598125 -36.11375 56.19625 -36.6875 56.8125 C-38 58 -38 58 -40 58 C-40 58.66 -40 59.32 -40 60 C-42.31382685 61.94896585 -44.63204789 63.76837635 -47.0625 65.5625 C-47.77752686 66.09319092 -48.49255371 66.62388184 -49.22924805 67.1706543 C-54.13279996 70.75640019 -59.13144313 74.14090945 -64.3125 77.3125 C-64.93970947 77.7031665 -65.56691895 78.09383301 -66.21313477 78.49633789 C-67.98828125 79.55078125 -67.98828125 79.55078125 -71 81 C-71.99 80.67 -72.98 80.34 -74 80 C-72.69675781 79.20335937 -72.69675781 79.20335937 -71.3671875 78.390625 C-70.20308757 77.6771444 -69.03902719 76.96359927 -67.875 76.25 C-67.30523437 75.90195312 -66.73546875 75.55390625 -66.1484375 75.1953125 C-60.3136976 71.61490392 -54.75415357 67.90865759 -49.5 63.5 C-46.6119311 61.10044073 -43.85091893 58.90436309 -40.6875 56.875 C-37.76663245 54.83718543 -35.80183995 52.64229861 -33.58984375 49.87890625 C-32 48 -32 48 -29.62109375 45.66015625 C-26.8894986 42.88785179 -24.47818173 39.96544068 -22.125 36.875 C-21.47591675 36.02566895 -21.47591675 36.02566895 -20.8137207 35.15917969 C-12.53421374 24.1934736 -6.03780379 12.30684263 0 0 Z " fill="#F3F2FA" transform="translate(394,305)"/>
<path d="M0 0 C0.91007812 0.00902344 1.82015625 0.01804688 2.7578125 0.02734375 C3.80582031 0.04474609 3.80582031 0.04474609 4.875 0.0625 C4.875 0.3925 4.875 0.7225 4.875 1.0625 C1.905 1.0625 -1.065 1.0625 -4.125 1.0625 C-4.125 10.6325 -4.125 20.2025 -4.125 30.0625 C-16.335 30.0625 -28.545 30.0625 -41.125 30.0625 C-41.125 36.0025 -41.125 41.9425 -41.125 48.0625 C-41.455 48.0625 -41.785 48.0625 -42.125 48.0625 C-42.18558594 47.08667969 -42.24617187 46.11085937 -42.30859375 45.10546875 C-42.39238281 43.83316406 -42.47617188 42.56085938 -42.5625 41.25 C-42.64371094 39.98542969 -42.72492188 38.72085938 -42.80859375 37.41796875 C-42.99684547 34.07068107 -42.99684547 34.07068107 -44.125 31.0625 C-41.24608485 28.24411713 -39.68475434 27.12035857 -35.61987305 26.70019531 C-34.30543213 26.76303711 -32.99099121 26.82587891 -31.63671875 26.890625 C-30.5819207 26.93240875 -30.5819207 26.93240875 -29.5058136 26.97503662 C-27.2733314 27.0679552 -25.04352199 27.18977093 -22.8125 27.3125 C-21.29370477 27.38082231 -19.77482302 27.44724911 -18.25585938 27.51171875 C-14.54355747 27.66986159 -10.83627222 27.86705807 -7.125 28.0625 C-7.125 19.1525 -7.125 10.2425 -7.125 1.0625 C-4.60024538 -0.19987731 -2.81299534 -0.03606404 0 0 Z " fill="#745BAB" transform="translate(221.125,140.9375)"/>
<path d="M0 0 C0.99 0.495 0.99 0.495 2 1 C1.20078125 1.4846875 0.4015625 1.969375 -0.421875 2.46875 C-16.43349829 12.23895837 -16.43349829 12.23895837 -31 24 C-32.29019722 25.10588333 -33.58189799 26.21001462 -34.875 27.3125 C-41.64162499 33.25001284 -48.27368925 39.28035911 -53 47 C-54.32114552 48.86287046 -55.65585931 50.7161529 -57 52.5625 C-57.99 53.92568359 -57.99 53.92568359 -59 55.31640625 C-60.9447167 57.92582104 -62.95158303 60.4714853 -65 63 C-64.38667098 58.75957005 -61.96735196 55.53348806 -59.625 52.0625 C-59.18236816 51.4037085 -58.73973633 50.74491699 -58.28369141 50.06616211 C-43.83452191 28.95963779 -23.65880561 10.34811956 0 0 Z " fill="#E5E4ED" transform="translate(179,105)"/>
<path d="M0 0 C0.66 0 1.32 0 2 0 C2 0.99 2 1.98 2 3 C1.34 3 0.68 3 0 3 C0 3.99 0 4.98 0 6 C-0.66 6 -1.32 6 -2 6 C-2 7.32 -2 8.64 -2 10 C-3 12 -3 12 -4 13 C-1.61945605 16.96757325 0.64744408 17.73050452 5 19 C9.3340686 21.88937907 11.31702141 26.01616731 12.4765625 31.08203125 C12.70924183 32.71411058 12.86309272 34.3571126 13 36 C11.90426767 34.3564015 10.82666229 32.69783022 9.84375 30.984375 C4.69194717 22.41800517 -2.71782822 17.43036783 -12 14 C-9.50727561 10.79506864 -7.02318663 7.72086797 -4 5 C-3.34 5 -2.68 5 -2 5 C-1.34 3.35 -0.68 1.7 0 0 Z " fill="#7960AC" transform="translate(311,222)"/>
<path d="M0 0 C1.05574219 -0.00064453 2.11148438 -0.00128906 3.19921875 -0.00195312 C10.38395638 0.04683213 17.18447585 0.46745898 24.1875 2.1875 C23.5275 3.5075 22.8675 4.8275 22.1875 6.1875 C21.53523438 5.95933594 20.88296875 5.73117188 20.2109375 5.49609375 C13.2979999 3.16837748 13.2979999 3.16837748 6.1875 4.1875 C5.8575 4.8475 5.5275 5.5075 5.1875 6.1875 C3.41427434 6.1875 1.8698441 5.71323253 0.1875 5.1875 C-0.1425 4.5275 -0.4725 3.8675 -0.8125 3.1875 C-7.4125 2.8575 -14.0125 2.5275 -20.8125 2.1875 C-20.8125 1.8575 -20.8125 1.5275 -20.8125 1.1875 C-13.84767569 0.283447 -7.02057869 -0.00443218 0 0 Z " fill="#7F65BA" transform="translate(248.8125,104.8125)"/>
<path d="M0 0 C14 0 14 0 19 3 C20.375 5 20.375 5 21 7 C20.67 7.99 20.34 8.98 20 10 C19.38125 9.030625 18.7625 8.06125 18.125 7.0625 C16.34321154 3.97164638 16.34321154 3.97164638 14 3 C9.71 2.34 5.42 1.68 1 1 C1 13.21 1 25.42 1 38 C9.07095662 37.42861689 9.07095662 37.42861689 17 36 C16.01 36.99 15.02 37.98 14 39 C9.38 39 4.76 39 0 39 C0 26.13 0 13.26 0 0 Z " fill="#745CA7" transform="translate(156,224)"/>
<path d="M0 0 C4.55806739 4.32432034 6.14627516 6.93057841 6.4375 13.1875 C6.38182679 18.44861841 5.21987477 21.38481246 1.7890625 25.3359375 C-0.99169975 27.92241069 -3.50260862 29.48226412 -7 31 C-7.99 30.67 -8.98 30.34 -10 30 C-9.34 30 -8.68 30 -8 30 C-7.67 29.34 -7.34 28.68 -7 28 C-5.00854609 26.98308736 -3.00812926 25.98357352 -1 25 C1.25829293 23.17490136 1.25829293 23.17490136 1.1953125 20.50390625 C1.17210937 19.53324219 1.14890625 18.56257813 1.125 17.5625 C1.10695313 16.59441406 1.08890625 15.62632812 1.0703125 14.62890625 C1.04710937 13.76136719 1.02390625 12.89382813 1 12 C1 9 1 9 1.625 6.5625 C2.05728067 3.60858207 1.56217417 2.48110015 0 0 Z " fill="#7B5CBC" transform="translate(282,257)"/>
<path d="M0 0 C0.66 0.33 1.32 0.66 2 1 C2 10.24 2 19.48 2 29 C-0.454375 29.020625 -2.90875 29.04125 -5.4375 29.0625 C-6.21150146 29.071604 -6.98550293 29.08070801 -7.78295898 29.09008789 C-9.52221717 29.09724913 -11.26145304 29.05024702 -13 29 C-14 28 -14 28 -14.11352539 25.40795898 C-14.10828857 24.28204346 -14.10305176 23.15612793 -14.09765625 21.99609375 C-14.09443359 20.78115234 -14.09121094 19.56621094 -14.08789062 18.31445312 C-14.07951172 17.03505859 -14.07113281 15.75566406 -14.0625 14.4375 C-14.05798828 13.15423828 -14.05347656 11.87097656 -14.04882812 10.54882812 C-14.03699545 7.36583978 -14.02051068 4.18294238 -14 1 C-13.01 1.495 -13.01 1.495 -12 2 C-12 9.92 -12 17.84 -12 26 C-8.04 26 -4.08 26 0 26 C0 17.42 0 8.84 0 0 Z " fill="#7257AA" transform="translate(250,142)"/>
<path d="M0 0 C0.66 0 1.32 0 2 0 C2.08934908 6.13530374 2.08674436 11.94528144 1 18 C1.33 18.99 1.66 19.98 2 21 C2.05664804 22.36214363 2.06199956 23.72686952 2.03125 25.08984375 C1.97629062 29.93313901 2.20563907 34.72941177 2.5 39.5625 C2.54769531 40.38041016 2.59539062 41.19832031 2.64453125 42.04101562 C2.76069881 44.0274809 2.8800115 46.01376186 3 48 C2.67 48 2.34 48 2 48 C-0.43415704 31.59898071 -1.47355701 16.55120284 0 0 Z " fill="#8268B3" transform="translate(109,228)"/>
<path d="M0 0 C0.66 0 1.32 0 2 0 C3.81398336 2.08773541 5.5108212 4.18077565 7.1875 6.375 C7.68000244 7.01187744 8.17250488 7.64875488 8.67993164 8.30493164 C20.2701949 23.38498125 20.2701949 23.38498125 24 31 C23.67 31.99 23.34 32.98 23 34 C22.47792969 33.15179688 21.95585937 32.30359375 21.41796875 31.4296875 C12.42988708 16.97466797 12.42988708 16.97466797 1.1796875 4.29296875 C0 3 0 3 0 0 Z " fill="#E9E9F0" transform="translate(364,138)"/>
<path d="M0 0 C0.33 0 0.66 0 1 0 C1.33 11.88 1.66 23.76 2 36 C7.94 36.66 13.88 37.32 20 38 C20 38.33 20 38.66 20 39 C13.4 39 6.8 39 0 39 C0 26.13 0 13.26 0 0 Z " fill="#6F57A5" transform="translate(236,192)"/>
<path d="M0 0 C0.33 0 0.66 0 1 0 C0.85957505 3.50023856 0.71166774 7.00012399 0.5625 10.5 C0.52318359 11.48226562 0.48386719 12.46453125 0.44335938 13.4765625 C0.20239383 19.0373059 -0.21921169 24.48855309 -1 30 C-2.4606285 27.35261084 -3 26.10551666 -3 23 C-3.66 23 -4.32 23 -5 23 C-4.67 20.69 -4.34 18.38 -4 16 C-3.67 16 -3.34 16 -3 16 C-3.04125 14.7625 -3.0825 13.525 -3.125 12.25 C-3.1426751 8.91529778 -2.68350903 6.91808231 -1 4 C-1.33 3.34 -1.66 2.68 -2 2 C-1.34 2 -0.68 2 0 2 C0 1.34 0 0.68 0 0 Z " fill="#8063BD" transform="translate(391,241)"/>
<path d="M0 0 C0.66 0.66 1.32 1.32 2 2 C0.33333333 3.66666667 -1.33333333 5.33333333 -3 7 C-3.845625 7.9075 -4.69125 8.815 -5.5625 9.75 C-7.91005397 11.91697289 -8.87429191 12.79834141 -12 13 C-14.25 12.5625 -14.25 12.5625 -16 12 C-16 12.66 -16 13.32 -16 14 C-18.97 13.505 -18.97 13.505 -22 13 C-19.57531826 11.77553572 -17.13772487 10.58716544 -14.6875 9.4140625 C-13.45824116 8.81789834 -12.2290768 8.22153937 -11 7.625 C-10.38382812 7.33367187 -9.76765625 7.04234375 -9.1328125 6.7421875 C-5.45439902 4.94244871 -2.70984012 3.07566854 0 0 Z " fill="#7C5DB6" transform="translate(315,297)"/>
<path d="M0 0 C2.25280305 3.63002273 2.35580521 6.91194458 2.5625 11.125 C2.63762616 15.72633179 2.63762616 15.72633179 4 20 C-0.625 24.875 -0.625 24.875 -4 26 C-3.69255859 25.195625 -3.69255859 25.195625 -3.37890625 24.375 C-0.61395989 16.33151967 -0.30302992 8.42214202 0 0 Z " fill="#7759B6" transform="translate(369,273)"/>
<path d="M0 0 C0.66 0.99 1.32 1.98 2 3 C-3.14868944 8.0199722 -7.26362861 9.04143849 -14.42773438 8.97875977 C-16.95564189 8.87818446 -19.47575889 8.73117049 -22 8.5625 C-22.87011719 8.51029297 -23.74023438 8.45808594 -24.63671875 8.40429688 C-26.75821809 8.27607439 -28.87917725 8.1389652 -31 8 C-31 7.67 -31 7.34 -31 7 C-29.72125 6.96261719 -28.4425 6.92523438 -27.125 6.88671875 C-25.4166396 6.82101258 -23.70830753 6.75456689 -22 6.6875 C-21.16082031 6.66494141 -20.32164062 6.64238281 -19.45703125 6.61914062 C-12.18218504 6.30897276 -5.65698789 4.9498644 0 0 Z " fill="#7B5DB9" transform="translate(364,299)"/>
<path d="M0 0 C0.66 0 1.32 0 2 0 C2.03758423 1.21115479 2.03758423 1.21115479 2.07592773 2.44677734 C2.19165487 6.08968917 2.31448635 9.73232726 2.4375 13.375 C2.47681641 14.64601562 2.51613281 15.91703125 2.55664062 17.2265625 C2.59853516 18.43828125 2.64042969 19.65 2.68359375 20.8984375 C2.72025146 22.01911621 2.75690918 23.13979492 2.79467773 24.29443359 C2.82596013 26.96712771 2.82596013 26.96712771 4 29 C2.68 29 1.36 29 0 29 C0 19.43 0 9.86 0 0 Z " fill="#765DAD" transform="translate(271,142)"/>
<path d="M0 0 C7.03910895 0.52434179 13.10348998 2.10979927 19.75 4.4375 C20.66910156 4.75009766 21.58820313 5.06269531 22.53515625 5.38476562 C26.73665737 6.8227613 30.88484474 8.32884549 35 10 C35 10.33 35 10.66 35 11 C32.36 10.67 29.72 10.34 27 10 C27 9.34 27 8.68 27 8 C25.6696875 8.061875 25.6696875 8.061875 24.3125 8.125 C20.97622551 7.99910285 19.01003047 7.34659258 16 6 C14.67323492 5.64141484 13.34164079 5.2981424 12 5 C12 4.34 12 3.68 12 3 C10.7625 3.061875 9.525 3.12375 8.25 3.1875 C5.21788698 3.20362826 4.17751704 3.10651023 1.5 1.5 C1.005 1.005 0.51 0.51 0 0 Z " fill="#8168B3" transform="translate(276,108)"/>
<path d="M0 0 C4.0174366 2.93993584 6.92802144 6.23764712 9.8125 10.25 C10.21919922 10.80429688 10.62589844 11.35859375 11.04492188 11.9296875 C12.03591711 13.28210453 13.01881466 14.64044907 14 16 C13.67 16.66 13.34 17.32 13 18 C11.82174642 17.09827532 10.65768423 16.17798498 9.5 15.25 C8.8503125 14.73953125 8.200625 14.2290625 7.53125 13.703125 C6 12 6 12 6 8 C4.68 8.33 3.36 8.66 2 9 C1.67 8.01 1.34 7.02 1 6 C0.62875 5.319375 0.2575 4.63875 -0.125 3.9375 C-0.41375 3.298125 -0.7025 2.65875 -1 2 C-0.67 1.34 -0.34 0.68 0 0 Z " fill="#7B62B8" transform="translate(354,151)"/>
<path d="M0 0 C0.66 1.32 1.32 2.64 2 4 C2.66 4 3.32 4 4 4 C4 4.66 4 5.32 4 6 C4.66 6 5.32 6 6 6 C10.08694042 10.08694042 11.44403549 14.59555523 13 20 C13.20753906 20.70511719 13.41507812 21.41023438 13.62890625 22.13671875 C14.09811214 23.75433067 14.55099259 25.37666551 15 27 C14.34 27.66 13.68 28.32 13 29 C12.79246094 28.09378906 12.58492188 27.18757813 12.37109375 26.25390625 C10.35537712 18.2838133 7.96799132 11.92389286 2 6 C1.34 5.67 0.68 5.34 0 5 C0 4.34 0 3.68 0 3 C-0.99 2.67 -1.98 2.34 -3 2 C-2.01 1.34 -1.02 0.68 0 0 Z " fill="#7961B2" transform="translate(302,178)"/>
<path d="M0 0 C2.05712447 0.56883688 2.05712447 0.56883688 3.99169922 -0.64697266 C4.48669922 1.33302734 4.48669922 1.33302734 4.99169922 3.35302734 C6.31169922 3.02302734 7.63169922 2.69302734 8.99169922 2.35302734 C8.99169922 3.67302734 8.99169922 4.99302734 8.99169922 6.35302734 C8.33169922 6.08490234 7.67169922 5.81677734 6.99169922 5.54052734 C6.00169922 5.14865234 5.01169922 4.75677734 3.99169922 4.35302734 C2.87794922 3.84771484 1.76419922 3.34240234 0.61669922 2.82177734 C-5.10543481 0.68056212 -10.96420577 0.78668618 -17.00830078 0.66552734 C-18.16458984 0.63136719 -19.32087891 0.59720703 -20.51220703 0.56201172 C-23.34414124 0.48009627 -26.1757878 0.41076212 -29.00830078 0.35302734 C-29.00830078 0.02302734 -29.00830078 -0.30697266 -29.00830078 -0.64697266 C-25.71777464 -0.87675546 -22.42604166 -1.07671578 -19.13330078 -1.27197266 C-18.21548828 -1.33642578 -17.29767578 -1.40087891 -16.35205078 -1.46728516 C-10.59800907 -1.79145652 -5.59963451 -1.39626376 0 0 Z " fill="#7258AB" transform="translate(175.00830078125,211.64697265625)"/>
<path d="M0 0 C0.91007813 0.00902344 1.82015625 0.01804688 2.7578125 0.02734375 C3.45648438 0.03894531 4.15515625 0.05054688 4.875 0.0625 C4.875 0.3925 4.875 0.7225 4.875 1.0625 C1.905 1.0625 -1.065 1.0625 -4.125 1.0625 C-4.104375 2.526875 -4.08375 3.99125 -4.0625 5.5 C-4.05219643 13.37192603 -4.60955114 21.21110934 -5.125 29.0625 C-5.455 29.0625 -5.785 29.0625 -6.125 29.0625 C-6.455 19.8225 -6.785 10.5825 -7.125 1.0625 C-4.60024538 -0.19987731 -2.81299534 -0.03606404 0 0 Z " fill="#7055B2" transform="translate(221.125,140.9375)"/>
<path d="M0 0 C0.66 0 1.32 0 2 0 C2 0.99 2 1.98 2 3 C1.34 3 0.68 3 0 3 C0 3.99 0 4.98 0 6 C-0.66 6 -1.32 6 -2 6 C-2 7.32 -2 8.64 -2 10 C-3 12 -3 12 -4 13 C-3.01 14.485 -3.01 14.485 -2 16 C-4.31 15.34 -6.62 14.68 -9 14 C-7.50079488 10.88626628 -5.91847864 7.87771795 -4 5 C-3.34 5 -2.68 5 -2 5 C-1.34 3.35 -0.68 1.7 0 0 Z " fill="#785BC5" transform="translate(311,222)"/>
<path d="M0 0 C0.66 0.33 1.32 0.66 2 1 C1.39671875 1.31453125 0.7934375 1.6290625 0.171875 1.953125 C-4.1763491 4.28152887 -7.55841932 6.43550572 -11 10 C-13.75 11.25 -13.75 11.25 -16 12 C-16.33 10.68 -16.66 9.36 -17 8 C-14.21443118 6.63301613 -11.42068672 5.28365462 -8.625 3.9375 C-7.8309375 3.54755859 -7.036875 3.15761719 -6.21875 2.75585938 C-5.45820313 2.39169922 -4.69765625 2.02753906 -3.9140625 1.65234375 C-2.8614624 1.14175415 -2.8614624 1.14175415 -1.78759766 0.62084961 C-1.19769043 0.41596924 -0.6077832 0.21108887 0 0 Z " fill="#8368BF" transform="translate(198,114)"/>
<path d="M0 0 C2.86724686 0.57344937 3.8614515 0.8614515 6 3 C8.10820797 2.6814823 8.10820797 2.6814823 10 2 C10.12375 3.423125 10.12375 3.423125 10.25 4.875 C10.65074923 8.10461791 10.65074923 8.10461791 13.0625 9.375 C13.701875 9.58125 14.34125 9.7875 15 10 C15 10.99 15 11.98 15 13 C13.05710718 11.59027312 11.12085734 10.17270125 9.1875 8.75 C8.64029297 8.35425781 8.09308594 7.95851563 7.52929688 7.55078125 C4.4921581 5.30513925 2.07206244 3.16989201 0 0 Z " fill="#7C62B6" transform="translate(156,351)"/>
<path d="M0 0 C1.32 0.66 2.64 1.32 4 2 C3.67 2.66 3.34 3.32 3 4 C4.65 4 6.3 4 8 4 C8 4.66 8 5.32 8 6 C3.05 6 -1.9 6 -7 6 C-7.33 4.68 -7.66 3.36 -8 2 C-6.8553125 2.061875 -6.8553125 2.061875 -5.6875 2.125 C-2.77281584 2.22080824 -2.77281584 2.22080824 0 0 Z " fill="#9880D3" transform="translate(226,137)"/>
<path d="M0 0 C3.61602102 4.36899392 3.36318502 8.43834025 3.1875 13.8125 C3.17396484 14.60076172 3.16042969 15.38902344 3.14648438 16.20117188 C3.11133456 18.13441169 3.05753361 20.06729682 3 22 C2.67 22 2.34 22 2 22 C2 17.38 2 12.76 2 8 C1.01 8 0.02 8 -1 8 C-1 6.68 -1 5.36 -1 4 C-1.99 3.67 -2.98 3.34 -4 3 C-4 2.34 -4 1.68 -4 1 C-2 0 -2 0 0 0 Z " fill="#7457AE" transform="translate(356,268)"/>
<path d="M0 0 C1.65 0.33 3.3 0.66 5 1 C4.47731534 3.76276177 3.89130413 6.3260876 3 9 C1.68 9 0.36 9 -1 9 C-1.33 7.35 -1.66 5.7 -2 4 C-1.34 3.67 -0.68 3.34 0 3 C0 2.01 0 1.02 0 0 Z " fill="#8062C3" transform="translate(372,305)"/>
<path d="M0 0 C1.0725 0.309375 2.145 0.61875 3.25 0.9375 C5.82866222 1.66812096 8.39512102 2.37482904 11 3 C11.66 2.01 12.32 1.02 13 0 C13.33 0.99 13.66 1.98 14 3 C17.00007271 4.70855022 17.00007271 4.70855022 20 6 C15.86175948 7.75529482 12.30717946 6.09000877 8.3125 4.6875 C7.62349609 4.46126953 6.93449219 4.23503906 6.22460938 4.00195312 C1.1322151 2.2644302 1.1322151 2.2644302 0 0 Z " fill="#8066B9" transform="translate(197,376)"/>
<path d="M0 0 C0.66 0.66 1.32 1.32 2 2 C0.02 4.97 -1.96 7.94 -4 11 C-5.65 10.67 -7.3 10.34 -9 10 C-8.34 8.35 -7.68 6.7 -7 5 C-6.34 5 -5.68 5 -5 5 C-5 5.66 -5 6.32 -5 7 C-4.34 7 -3.68 7 -3 7 C-2.690625 6.030625 -2.38125 5.06125 -2.0625 4.0625 C-1 1 -1 1 0 0 Z " fill="#7F5EBD" transform="translate(371,315)"/>
<path d="M0 0 C0.66 0 1.32 0 2 0 C2.10852923 2.87602455 2.1875515 5.74790832 2.25 8.625 C2.28351563 9.43324219 2.31703125 10.24148437 2.3515625 11.07421875 C2.44334063 16.7185737 1.59967695 19.62086544 -2 24 C-2.66 23.67 -3.32 23.34 -4 23 C-3 21 -3 21 -1 18 C-0.01216906 15.03650719 0.13410525 13.0287337 0.125 9.9375 C0.12886719 8.62072266 0.12886719 8.62072266 0.1328125 7.27734375 C0.14833424 4.96801734 0.14833424 4.96801734 -1 3 C-0.67 2.01 -0.34 1.02 0 0 Z " fill="#6E55A0" transform="translate(177,235)"/>
<path d="M0 0 C5.80477223 5.50709161 5.80477223 5.50709161 6.203125 10.59375 C6.21859375 11.5528125 6.2340625 12.511875 6.25 13.5 C6.27578125 14.4590625 6.3015625 15.418125 6.328125 16.40625 C5.95389709 19.36443253 5.30935919 20.20113073 3 22 C2.957279 20.33388095 2.95936168 18.66617115 3 17 C3.33 16.67 3.66 16.34 4 16 C4.41515159 10.70681728 3.60597693 7.58651939 1 3 C0.67 2.01 0.34 1.02 0 0 Z " fill="#765DAA" transform="translate(282,257)"/>
<path d="M0 0 C7.03482474 -0.23668569 13.1834265 0.2120463 20 2 C18.68 2.99 17.36 3.98 16 5 C15.67 4.34 15.34 3.68 15 3 C14.1028125 3.309375 14.1028125 3.309375 13.1875 3.625 C11 4 11 4 8 2 C5.9507906 1.54860541 5.9507906 1.54860541 3.8125 1.375 C1.9253125 1.189375 1.9253125 1.189375 0 1 C0 0.67 0 0.34 0 0 Z " fill="#7B62B6" transform="translate(255,250)"/>
<path d="M0 0 C1.32 0 2.64 0 4 0 C4.103125 0.61875 4.20625 1.2375 4.3125 1.875 C4.87525373 4.36526484 4.87525373 4.36526484 8 6 C8 6.66 8 7.32 8 8 C8.66 8 9.32 8 10 8 C11.6875 10.375 11.6875 10.375 13 13 C12.67 13.66 12.34 14.32 12 15 C10.55726615 13.44233138 9.12103292 11.87864043 7.6875 10.3125 C6.88699219 9.44238281 6.08648437 8.57226562 5.26171875 7.67578125 C3.18451663 5.21829688 1.56168424 2.80496684 0 0 Z " fill="#7E68B5" transform="translate(137,331)"/>
<path d="M0 0 C0.33 0 0.66 0 1 0 C1.21459023 4.5063948 0.47302822 7.76504386 -1 12 C-1 13.32 -1 14.64 -1 16 C-1.66 16 -2.32 16 -3 16 C-3.66 17.32 -4.32 18.64 -5 20 C-3.90109517 13.08336373 -2.43430815 6.57263201 0 0 Z " fill="#8266B7" transform="translate(116,199)"/>
<path d="M0 0 C2.33333333 2.33333333 4.66666667 4.66666667 7 7 C6.67 7.66 6.34 8.32 6 9 C2.37 6.69 -1.26 4.38 -5 2 C-3.68 1.67 -2.36 1.34 -1 1 C-0.67 0.67 -0.34 0.34 0 0 Z " fill="#8469B9" transform="translate(178,363)"/>
<path d="M0 0 C0.99 0.33 1.98 0.66 3 1 C3 1.66 3 2.32 3 3 C4.32 2.67 5.64 2.34 7 2 C7.33 3.32 7.66 4.64 8 6 C7.34 6 6.68 6 6 6 C6.99 7.485 6.99 7.485 8 9 C7.67 9.99 7.34 10.98 7 12 C5.83061933 10.18924982 4.66456267 8.37635257 3.5 6.5625 C2.8503125 5.55316406 2.200625 4.54382813 1.53125 3.50390625 C0 1 0 1 0 0 Z " fill="#846CBD" transform="translate(127,316)"/>
<path d="M0 0 C1 3 1 3 0.22265625 4.82421875 C-0.8515625 6.54947917 -1.92578125 8.27473958 -3 10 C-3.99 10 -4.98 10 -6 10 C-6 10.66 -6 11.32 -6 12 C-6.99 12.33 -7.98 12.66 -9 13 C-9.99 12.34 -10.98 11.68 -12 11 C-10.948125 10.484375 -9.89625 9.96875 -8.8125 9.4375 C-4.57856093 7.05375788 -2.579131 4.06408521 0 0 Z " fill="#795EB0" transform="translate(188,261)"/>
<path d="M0 0 C0.33 0.66 0.66 1.32 1 2 C-1.05233685 4.2477975 -2.00667261 5.0022242 -5 6 C-5.99 7.485 -5.99 7.485 -7 9 C-9.95264073 11.04413589 -11.36672806 12 -15 12 C-10.20968493 7.61420043 -5.54110713 3.40991208 0 0 Z " fill="#816CB6" transform="translate(170,129)"/>
<path d="M0 0 C0.66 0 1.32 0 2 0 C2.66 4.29 3.32 8.58 4 13 C3.34 12.67 2.68 12.34 2 12 C2 10.35 2 8.7 2 7 C1.01 6.67 0.02 6.34 -1 6 C-1.042721 4.33388095 -1.04063832 2.66617115 -1 1 C-0.67 0.67 -0.34 0.34 0 0 Z " fill="#8064B6" transform="translate(387,218)"/>
<path d="M0 0 C-0.66 0 -1.32 0 -2 0 C-2 0.66 -2 1.32 -2 2 C-2.60328125 2.04898438 -3.2065625 2.09796875 -3.828125 2.1484375 C-5.02695313 2.26058594 -5.02695313 2.26058594 -6.25 2.375 C-7.43335938 2.47941406 -7.43335938 2.47941406 -8.640625 2.5859375 C-11.09537697 3.01673834 -12.79465101 3.87909948 -15 5 C-15.99 5 -16.98 5 -18 5 C-18 4.34 -18 3.68 -18 3 C-15.75376301 2.30030318 -13.50283586 1.61564957 -11.25 0.9375 C-9.99703125 0.55464844 -8.7440625 0.17179687 -7.453125 -0.22265625 C-4.3261992 -0.92656828 -2.90533954 -1.16653785 0 0 Z " fill="#846DBA" transform="translate(221,109)"/>
<path d="M0 0 C-3.04120692 1.77504706 -5.04674654 2.21305767 -8.546875 1.9765625 C-9.81337891 1.89921875 -9.81337891 1.89921875 -11.10546875 1.8203125 C-11.97816406 1.75585938 -12.85085938 1.69140625 -13.75 1.625 C-14.63816406 1.56828125 -15.52632813 1.5115625 -16.44140625 1.453125 C-18.62846332 1.31202454 -20.8143069 1.1606567 -23 1 C-23 0.67 -23 0.34 -23 0 C-19.91722144 -0.1974877 -16.8337715 -0.38123332 -13.75 -0.5625 C-12.87730469 -0.61857422 -12.00460937 -0.67464844 -11.10546875 -0.73242188 C-10.26113281 -0.78076172 -9.41679687 -0.82910156 -8.546875 -0.87890625 C-7.77182617 -0.9260376 -6.99677734 -0.97316895 -6.19824219 -1.02172852 C-3.96887415 -0.99969234 -2.13101433 -0.6303897 0 0 Z " fill="#7159A7" transform="translate(356,306)"/>
<path d="M0 0 C0.33 0 0.66 0 1 0 C0.67 5.28 0.34 10.56 0 16 C-0.33 16 -0.66 16 -1 16 C-3.22727273 8.57575758 -3.22727273 8.57575758 -2.0625 5.625 C-1.711875 5.08875 -1.36125 4.5525 -1 4 C-1.33 3.34 -1.66 2.68 -2 2 C-1.34 2 -0.68 2 0 2 C0 1.34 0 0.68 0 0 Z " fill="#775BAE" transform="translate(391,241)"/>
<path d="M0 0 C2.99220268 1.36370299 5.29026529 2.94908083 7.75 5.125 C8.67039062 5.93324219 8.67039062 5.93324219 9.609375 6.7578125 C10.06828125 7.16773438 10.5271875 7.57765625 11 8 C10.01 8.495 10.01 8.495 9 9 C8.4225 8.525625 7.845 8.05125 7.25 7.5625 C5.07417916 6.0515133 3.57397552 5.45963849 1 5 C0.67 3.35 0.34 1.7 0 0 Z " fill="#7B63B6" transform="translate(335,134)"/>
<path d="M0 0 C-1.48985569 3.79235994 -3.58658047 5.80565887 -7 8 C-9.1640625 7.60546875 -9.1640625 7.60546875 -11 7 C-9.54634731 5.82750647 -8.08692581 4.66216184 -6.625 3.5 C-5.40683594 2.52546875 -5.40683594 2.52546875 -4.1640625 1.53125 C-2 0 -2 0 0 0 Z " fill="#FBFCFD" transform="translate(352,364)"/>
<path d="M0 0 C2.97 0.495 2.97 0.495 6 1 C0.85714286 6.57142857 0.85714286 6.57142857 -3 7 C-3 6.34 -3 5.68 -3 5 C-2.34 4.67 -1.68 4.34 -1 4 C-0.34786708 1.97536745 -0.34786708 1.97536745 0 0 Z " fill="#7B5FB9" transform="translate(331,356)"/>
<path d="M0 0 C1.32 0 2.64 0 4 0 C2.59155282 3.21524305 0.89655214 5.32183868 -1.625 7.75 C-2.57246094 8.67039062 -2.57246094 8.67039062 -3.5390625 9.609375 C-4.02117187 10.06828125 -4.50328125 10.5271875 -5 11 C-5 6.72946073 -2.69874028 5.17101982 0 2 C0 1.34 0 0.68 0 0 Z " fill="#7B61B8" transform="translate(356,334)"/>
<path d="M0 0 C2.28827539 2.28827539 2.42255351 3.27122511 3 6.375 C3.59973478 9.57715537 4.43134215 12.13719943 6 15 C5.01 15 4.02 15 3 15 C2.49363393 13.25183142 1.99515381 11.50137737 1.5 9.75 C1.2215625 8.77546875 0.943125 7.8009375 0.65625 6.796875 C0 4 0 4 0 0 Z " fill="#846EB7" transform="translate(112,276)"/>
<path d="M0 0 C1.14926266 0.95421808 2.29430541 1.91352045 3.4375 2.875 C4.07558594 3.40867188 4.71367187 3.94234375 5.37109375 4.4921875 C7 6 7 6 8 8 C5.36 7.34 2.72 6.68 0 6 C0 4.02 0 2.04 0 0 Z " fill="#7960B1" transform="translate(346,143)"/>
<path d="M0 0 C1.37562854 1.28965176 2.70766393 2.62689293 4 4 C4 4.66 4 5.32 4 6 C0.1936543 5.32829194 -3.35206816 4.27253436 -7 3 C-4.50935112 2.31292445 -2.62113708 2 0 2 C0 1.34 0 0.68 0 0 Z " fill="#765BB3" transform="translate(292,171)"/>
<path d="M0 0 C1.21386936 3.64160808 0.6674695 4.33165469 -0.9375 7.6875 C-1.31777344 8.49574219 -1.69804687 9.30398438 -2.08984375 10.13671875 C-2.39019531 10.75160156 -2.69054687 11.36648438 -3 12 C-3.99 11.34 -4.98 10.68 -6 10 C-5.34 10 -4.68 10 -4 10 C-3.67 9.01 -3.34 8.02 -3 7 C-2.03010139 4.65314689 -1.01097956 2.32964856 0 0 Z " fill="#7A61B4" transform="translate(383,290)"/>
<path d="M0 0 C0.66 0 1.32 0 2 0 C2 0.99 2 1.98 2 3 C1.34 3 0.68 3 0 3 C0 3.99 0 4.98 0 6 C-0.66 6 -1.32 6 -2 6 C-2.33 6.99 -2.66 7.98 -3 9 C-3.99 8.67 -4.98 8.34 -6 8 C-5.34 7.01 -4.68 6.02 -4 5 C-3.34 5 -2.68 5 -2 5 C-1.34 3.35 -0.68 1.7 0 0 Z " fill="#7962B0" transform="translate(311,222)"/>
<path d="M0 0 C0.33 1.65 0.66 3.3 1 5 C-1.9375 4.1875 -1.9375 4.1875 -5 3 C-5.33 2.01 -5.66 1.02 -6 0 C-3.50907189 -1.24546405 -2.58919267 -0.7767578 0 0 Z " fill="#7B5FBE" transform="translate(190,369)"/>
<path d="M0 0 C0.66 1.32 1.32 2.64 2 4 C0.02 6.64 -1.96 9.28 -4 12 C-4.66 11.67 -5.32 11.34 -6 11 C-5.65066406 10.37351562 -5.30132812 9.74703125 -4.94140625 9.1015625 C-4.48636719 8.28429687 -4.03132813 7.46703125 -3.5625 6.625 C-3.11003906 5.81289063 -2.65757812 5.00078125 -2.19140625 4.1640625 C-1.4349464 2.79003378 -0.70145369 1.40290739 0 0 Z " fill="#785FA8" transform="translate(322,285)"/>
<path d="M0 0 C0.33 1.32 0.66 2.64 1 4 C-1.4375 6.75 -1.4375 6.75 -4 9 C-4.99 8.67 -5.98 8.34 -7 8 C-4.69 5.36 -2.38 2.72 0 0 Z " fill="#7F65B5" transform="translate(147,148)"/>
<path d="M0 0 C2.97 0.495 2.97 0.495 6 1 C2.8745041 3.64465038 -0.08788267 4.84414715 -4 6 C-2.68 4.02 -1.36 2.04 0 0 Z " fill="#7C60B5" transform="translate(313,368)"/>
<path d="M0 0 C0.99 0.66 1.98 1.32 3 2 C2.71125 2.556875 2.4225 3.11375 2.125 3.6875 C0.9586747 6.08494645 -0.0339881 8.51596939 -1 11 C-2.60080151 6.99799622 -1.29279692 3.95443764 0 0 Z " fill="#785CB7" transform="translate(315,209)"/>
<path d="M0 0 C3.16717283 1.58358642 4.73268318 2.45263699 6.3125 5.6875 C6.539375 6.450625 6.76625 7.21375 7 8 C5 8 5 8 2.375 5.6875 C0 3 0 3 0 0 Z " fill="#7860AD" transform="translate(272,197)"/>
<path d="M0 0 C0.66 0.33 1.32 0.66 2 1 C2 1.66 2 2.32 2 3 C-4.625 6 -4.625 6 -8 6 C-5.63404067 3.38499232 -3.13950774 1.61000397 0 0 Z " fill="#8770BB" transform="translate(179,123)"/>
<path d="M0 0 C2.29013653 3.4352048 2.17842973 4.985331 2 9 C1.01 9 0.02 9 -1 9 C-1.09765625 2.84765625 -1.09765625 2.84765625 -1 1 C-0.67 0.67 -0.34 0.34 0 0 Z " fill="#7F63BC" transform="translate(324,280)"/>
<path d="M0 0 C2.31 0.66 4.62 1.32 7 2 C6.1028125 2.1546875 6.1028125 2.1546875 5.1875 2.3125 C2.71756736 3.08876455 1.67748765 4.07088921 0 6 C-0.66 4.68 -1.32 3.36 -2 2 C-1.34 1.34 -0.68 0.68 0 0 Z " fill="#795CB7" transform="translate(265,194)"/>
<path d="M0 0 C2.9375 1.3125 2.9375 1.3125 6 3 C6.33 3.99 6.66 4.98 7 6 C4.03 5.505 4.03 5.505 1 5 C0.67 3.35 0.34 1.7 0 0 Z " fill="#7E66BC" transform="translate(312,119)"/>
<path d="M0 0 C4.3890815 0.51035831 7.33708062 1.52214277 11 4 C9.4375 4.75 9.4375 4.75 7 5 C4.49713591 3.86915563 2.32992278 2.47860484 0 1 C0 0.67 0 0.34 0 0 Z " fill="#EFEFF4" transform="translate(313,103)"/>
<path d="M0 0 C1.65 0.33 3.3 0.66 5 1 C2.42910583 3.11180592 0.36939433 4.66306057 -3 5 C-3.66 4.34 -4.32 3.68 -5 3 C-3.35 2.67 -1.7 2.34 0 2 C0 1.34 0 0.68 0 0 Z " fill="#876CB9" transform="translate(304,373)"/>
<path d="M0 0 C3.3 0 6.6 0 10 0 C6.81237635 2.12508244 4.73487777 2.5020163 1 3 C0.67 2.01 0.34 1.02 0 0 Z " fill="#8B75BC" transform="translate(272,383)"/>
<path d="M0 0 C0.66 0.66 1.32 1.32 2 2 C-0.64 3.65 -3.28 5.3 -6 7 C-5.34 5.35 -4.68 3.7 -4 2 C-3.01 2.33 -2.02 2.66 -1 3 C-0.67 2.01 -0.34 1.02 0 0 Z " fill="#8163B5" transform="translate(326,362)"/>
<path d="M0 0 C0.99 0.33 1.98 0.66 3 1 C0.69 3.31 -1.62 5.62 -4 8 C-4.33 7.34 -4.66 6.68 -5 6 C-3.35 4.02 -1.7 2.04 0 0 Z " fill="#7E66B0" transform="translate(344,348)"/>
<path d="M0 0 C2.7839183 1.39195915 2.97898997 3.15575779 4 6 C1 6 1 6 -1.1875 4 C-1.785625 3.34 -2.38375 2.68 -3 2 C-2.01 2 -1.02 2 0 2 C0 1.34 0 0.68 0 0 Z " fill="#8562D1" transform="translate(326,256)"/>
<path d="M0 0 C0.33 0 0.66 0 1 0 C1 5.94 1 11.88 1 18 C0.67 18 0.34 18 0 18 C0 12.06 0 6.12 0 0 Z " fill="#D1CDE3" transform="translate(406,237)"/>
<path d="M0 0 C0.33 0 0.66 0 1 0 C1 5.61 1 11.22 1 17 C0.67 17 0.34 17 0 17 C0 11.39 0 5.78 0 0 Z " fill="#BDBAC4" transform="translate(93,237)"/>
<path d="M0 0 C1.32 0.66 2.64 1.32 4 2 C4 3.66666667 4 5.33333333 4 7 C3.34 7 2.68 7 2 7 C0.3125 5.1875 0.3125 5.1875 -1 3 C-0.67 2.01 -0.34 1.02 0 0 Z " fill="#8D70CC" transform="translate(261,193)"/>
<path d="M0 0 C3.3 0 6.6 0 10 0 C10.33 0.66 10.66 1.32 11 2 C7.37 1.67 3.74 1.34 0 1 C0 0.67 0 0.34 0 0 Z " fill="#CCD4E8" transform="translate(233,401)"/>
<path d="M0 0 C-6.625 3.125 -6.625 3.125 -10 2 C-3.375 -1.125 -3.375 -1.125 0 0 Z " fill="#D7D7DE" transform="translate(196,100)"/>
<path d="M0 0 C2.64 0 5.28 0 8 0 C8 0.33 8 0.66 8 1 C3.545 1.495 3.545 1.495 -1 2 C-0.67 1.34 -0.34 0.68 0 0 Z " fill="#DEDEEE" transform="translate(260,401)"/>
<path d="M0 0 C1.9955516 3.99110319 2.19546065 5.69986566 2 10 C1.67 10 1.34 10 1 10 C0.67 6.7 0.34 3.4 0 0 Z " fill="#E4E4F4" transform="translate(95,271)"/>
<path d="M0 0 C2.64 0.66 5.28 1.32 8 2 C4.37673261 3.2077558 3.35853631 2.54311128 0 1 C0 0.67 0 0.34 0 0 Z " fill="#F3F2FC" transform="translate(194,392)"/>
<path d="M0 0 C0.33 0.66 0.66 1.32 1 2 C-0.32 3.65 -1.64 5.3 -3 7 C-2.38722388 4.03824877 -1.74627478 2.61941217 0 0 Z " fill="#E0E0E5" transform="translate(113,168)"/>
<path d="M0 0 C-2.35438733 1.42944945 -3.48032433 2.08661261 -6.25 1.625 C-6.8275 1.41875 -7.405 1.2125 -8 1 C-5.07175348 0.02391783 -3.04386724 -0.08226668 0 0 Z " fill="#EAEAED" transform="translate(292,397)"/>
<path d="M0 0 C0.33 0.66 0.66 1.32 1 2 C0.0625 4.625 0.0625 4.625 -1 7 C-2 4 -2 4 -1.0625 1.8125 C-0.5365625 0.9153125 -0.5365625 0.9153125 0 0 Z " fill="#E2E2F0" transform="translate(107,179)"/>
<path d="M0 0 C4.75 0.75 4.75 0.75 7 3 C2.25 2.25 2.25 2.25 0 0 Z " fill="#EEEEF1" transform="translate(306,100)"/>
<path d="M0 0 C0.66 0.66 1.32 1.32 2 2 C1.625 4.125 1.625 4.125 1 6 C0.67 4.02 0.34 2.04 0 0 Z " fill="#F9F9FB" transform="translate(99,289)"/>
<path d="M0 0 C2.125 0.375 2.125 0.375 4 1 C2.02 1.33 0.04 1.66 -2 2 C-1.34 1.34 -0.68 0.68 0 0 Z " fill="#CACACA" transform="translate(204,95)"/>
<path d="M0 0 C2.97 0.495 2.97 0.495 6 1 C4.125 1.625 4.125 1.625 2 2 C1.34 1.34 0.68 0.68 0 0 Z " fill="#D6D6E3" transform="translate(283,93)"/>
<path d="M0 0 C2.125 0.375 2.125 0.375 4 1 C2.02 1.33 0.04 1.66 -2 2 C-1.34 1.34 -0.68 0.68 0 0 Z " fill="#C0C0C5" transform="translate(212,93)"/>
<path d="M0 0 C0.66 0.66 1.32 1.32 2 2 C1.625 4.125 1.625 4.125 1 6 C0.67 4.02 0.34 2.04 0 0 Z " fill="#F0F0F0" transform="translate(97,282)"/>
<path d="M0 0 C1.98 0 3.96 0 6 0 C6 0.33 6 0.66 6 1 C4.02 1 2.04 1 0 1 C0 0.67 0 0.34 0 0 Z " fill="#C4C4C8" transform="translate(273,400)"/>
<path d="M0 0 C0.99 0.33 1.98 0.66 3 1 C1.35 1.33 -0.3 1.66 -2 2 C-1.34 1.34 -0.68 0.68 0 0 Z " fill="#FFFFFF" transform="translate(309,390)"/>
<path d="M0 0 C0.33 0.99 0.66 1.98 1 3 C0.34 3.66 -0.32 4.32 -1 5 C-0.67 3.35 -0.34 1.7 0 0 Z " fill="#EEEAF7" transform="translate(396,300)"/>
<path d="M0 0 C0.66 0.66 1.32 1.32 2 2 C1.67 2.99 1.34 3.98 1 5 C0.67 3.35 0.34 1.7 0 0 Z " fill="#EBEBEB" transform="translate(393,182)"/>
<path d="M0 0 C0.99 0.33 1.98 0.66 3 1 C1.35 1.33 -0.3 1.66 -2 2 C-1.34 1.34 -0.68 0.68 0 0 Z " fill="#D6D6E8" transform="translate(183,103)"/>
<path d="M0 0 C0.99 0.33 1.98 0.66 3 1 C1.35 1.33 -0.3 1.66 -2 2 C-1.34 1.34 -0.68 0.68 0 0 Z " fill="#C5C5D4" transform="translate(198,97)"/>
<path d="M0 0 C2.475 0.495 2.475 0.495 5 1 C4.01 1.33 3.02 1.66 2 2 C1.34 1.34 0.68 0.68 0 0 Z " fill="#CBCBDC" transform="translate(298,97)"/>
<path d="M0 0 C1.98 0 3.96 0 6 0 C6 0.33 6 0.66 6 1 C4.02 1 2.04 1 0 1 C0 0.67 0 0.34 0 0 Z " fill="#D8D8D8" transform="translate(238,90)"/>
<path d="M0 0 C0.66 0.33 1.32 0.66 2 1 C0.68 1.33 -0.64 1.66 -2 2 C-1.34 1.34 -0.68 0.68 0 0 Z " fill="#F6F6F8" transform="translate(314,388)"/>
<path d="M0 0 C0.66 0.33 1.32 0.66 2 1 C0.68 1.33 -0.64 1.66 -2 2 C-1.34 1.34 -0.68 0.68 0 0 Z " fill="#EEEEF5" transform="translate(318,386)"/>
<path d="M0 0 C0.33 0.66 0.66 1.32 1 2 C0.34 2.66 -0.32 3.32 -1 4 C-0.67 2.68 -0.34 1.36 0 0 Z " fill="#DFD9ED" transform="translate(104,187)"/>
<path d="M0 0 C0.99 0.495 0.99 0.495 2 1 C1.67 1.99 1.34 2.98 1 4 C0.67 2.68 0.34 1.36 0 0 Z " fill="#E4E4EE" transform="translate(390,176)"/>
<path d="M0 0 C0.99 0.495 0.99 0.495 2 1 C1.67 1.99 1.34 2.98 1 4 C0.67 2.68 0.34 1.36 0 0 Z " fill="#E4E4EF" transform="translate(388,172)"/>
<path d="M0 0 C1.65 0 3.3 0 5 0 C5 0.33 5 0.66 5 1 C3.35 1 1.7 1 0 1 C0 0.67 0 0.34 0 0 Z " fill="#D2D2D2" transform="translate(255,90)"/>
<path d="M0 0 C4 1 4 1 4 1 Z " fill="#FFFFFF" transform="translate(213,398)"/>
<path d="M0 0 C4 1 4 1 4 1 Z " fill="#F5F5F5" transform="translate(292,396)"/>
<path d="M0 0 C1 4 1 4 1 4 Z " fill="#E0E0E0" transform="translate(404,270)"/>
<path d="M0 0 C1 4 1 4 1 4 Z " fill="#DFDFDF" transform="translate(404,217)"/>
<path d="M0 0 C1 4 1 4 1 4 Z " fill="#E1DEE1" transform="translate(97,207)"/>
<path d="M0 0 C1 4 1 4 1 4 Z " fill="#F7F7F7" transform="translate(100,196)"/>
<path d="M0 0 C3 1 3 1 3 1 Z " fill="#E9FFFF" transform="translate(270,401)"/>
<path d="M0 0 C3 1 3 1 3 1 Z " fill="#FFFFFF" transform="translate(210,397)"/>
<path d="M0 0 C3 1 3 1 3 1 Z " fill="#F1E5F9" transform="translate(205,396)"/>
<path d="M0 0 C3 1 3 1 3 1 Z " fill="#FFFFFF" transform="translate(296,395)"/>
<path d="M0 0 C3 1 3 1 3 1 Z " fill="#EDEDED" transform="translate(299,394)"/>
<path d="M0 0 C3 1 3 1 3 1 Z " fill="#E1E6F1" transform="translate(304,392)"/>
<path d="" fill="#FFFFFF" transform="translate(0,0)"/>
<path d="" fill="#EEEEEE" transform="translate(0,0)"/>
<path d="" fill="#D8D8D8" transform="translate(0,0)"/>
<path d="" fill="#E5E5F5" transform="translate(0,0)"/>
<path d="" fill="#EBEBEB" transform="translate(0,0)"/>
<path d="" fill="#FFFFFF" transform="translate(0,0)"/>
<path d="" fill="#F9F9FF" transform="translate(0,0)"/>
<path d="" fill="#DCD1DC" transform="translate(0,0)"/>
<path d="" fill="#E4E4F5" transform="translate(0,0)"/>
<path d="M0 0 C3 1 3 1 3 1 Z " fill="#D1D1D8" transform="translate(291,95)"/>
<path d="M0 0 C2 1 2 1 2 1 Z " fill="#E5E5E5" transform="translate(225,400)"/>
<path d="M0 0 C2 1 2 1 2 1 Z " fill="#FFFFFF" transform="translate(282,399)"/>
<path d="M0 0 C2 1 2 1 2 1 Z " fill="#FFFFFF" transform="translate(203,395)"/>
<path d="M0 0 C2 1 2 1 2 1 Z " fill="#FFFFFF" transform="translate(302,393)"/>
<path d="" fill="#EEE8F9" transform="translate(0,0)"/>
<path d="" fill="#F4F4F4" transform="translate(0,0)"/>
<path d="" fill="#FFFFFF" transform="translate(0,0)"/>
<path d="" fill="#FFFFFF" transform="translate(0,0)"/>
<path d="" fill="#E5E5E5" transform="translate(0,0)"/>
<path d="" fill="#FFFFFF" transform="translate(0,0)"/>
<path d="" fill="#D3D3E6" transform="translate(0,0)"/>
<path d="" fill="#E5E5FF" transform="translate(0,0)"/>
<path d="" fill="#D9D9D9" transform="translate(0,0)"/>
<path d="M0 0 C2 1 2 1 2 1 Z " fill="#BFBFBF" transform="translate(304,99)"/>
<path d="M0 0 C2 1 2 1 2 1 Z " fill="#B7B7B7" transform="translate(272,91)"/>
<path d="M0 0 C2 1 2 1 2 1 Z " fill="#BBBBBB" transform="translate(225,91)"/>
<path d="" fill="#CCCCCC" transform="translate(0,0)"/>
<path d="" fill="#CCCCCC" transform="translate(0,0)"/>
<path d="" fill="#B6B6B6" transform="translate(0,0)"/>
<path d="" fill="#FFFFFF" transform="translate(0,0)"/>
<path d="" fill="#FFFFFF" transform="translate(0,0)"/>
<path d="" fill="#FFFFFF" transform="translate(0,0)"/>
<path d="" fill="#FFFFFF" transform="translate(0,0)"/>
<path d="" fill="#FFFFFF" transform="translate(0,0)"/>
<path d="" fill="#FFFFFF" transform="translate(0,0)"/>
<path d="" fill="#FFFFFF" transform="translate(0,0)"/>
<path d="" fill="#FFFFFF" transform="translate(0,0)"/>
<path d="" fill="#FFFFFF" transform="translate(0,0)"/>
</svg>
